<?xml version="1.0" encoding="UTF-8"?>
<svg width="144px" height="144px" viewBox="0 0 144 144" version="1.1" xmlns="http://www.w3.org/2000/svg" xmlns:xlink="http://www.w3.org/1999/xlink">
    <!-- Generator: Sketch 45.2 (43514) - http://www.bohemiancoding.com/sketch -->
    <title>icon</title>
    <desc>Created with Sketch.</desc>
    <defs>
        <linearGradient x1="0%" y1="41.3389192%" x2="58.8401775%" y2="50%" id="linearGradient-1">
            <stop stop-color="#FB6A47" offset="0%"></stop>
            <stop stop-color="#F7624F" offset="100%"></stop>
        </linearGradient>
        <circle id="path-2" cx="71.6990207" cy="71.6990207" r="71.6990207"></circle>
        <filter x="-1.4%" y="-0.7%" width="102.8%" height="102.8%" filterUnits="objectBoundingBox" id="filter-3">
            <feOffset dx="0" dy="1" in="SourceAlpha" result="shadowOffsetOuter1"></feOffset>
            <feGaussianBlur stdDeviation="0.5" in="shadowOffsetOuter1" result="shadowBlurOuter1"></feGaussianBlur>
            <feColorMatrix values="0 0 0 0 0.47308142   0 0 0 0 0.0622618007   0 0 0 0 0.0622618007  0 0 0 0.695793705 0" type="matrix" in="shadowBlurOuter1"></feColorMatrix>
        </filter>
    </defs>
    <g id="Symbols" stroke="none" stroke-width="1" fill="none" fill-rule="evenodd">
        <g id="icon">
            <g id="circle_bk">
                <use fill="black" fill-opacity="1" filter="url(#filter-3)" xlink:href="#path-2"></use>
                <use fill="url(#linearGradient-1)" fill-rule="evenodd" xlink:href="#path-2"></use>
            </g>
            <g id="recho-logo" transform="translate(64.000000, 10.000000)">
                <g id="logo">
                    <path d="M6,60 C6.09028398,82.6419354 6.09028398,97.4572738 6,104.446015 C5.90971602,111.434756 5.64268667,117.289741 5.19891196,122.010968 L9.80108804,122.010968 C9.35577288,117.170497 9.08874353,111.315513 9,104.446015 C8.91125647,97.5765176 8.91125647,82.7611793 9,60 L6,60 Z" id="Path" fill="#FFFFFF" fill-rule="nonzero"></path>
                    <path d="M5.53810682,0.938350469 C5.63891361,1.11198257 5.7145187,2.99111391 5.76492209,6.57574448 C5.81019207,9.79529219 5.87809703,18.1224283 5.96863697,31.5571527 C5.97987086,32.3560939 6.66548544,33.0037637 7.5,33.0037637 C8.33451456,33.0037637 9.02012914,32.3560939 9.03136303,31.5571527 C9.12681642,18.2971474 9.19840646,9.97001132 9.24613315,6.57574448 C9.29407983,3.16583304 9.36599983,1.2867017 9.46189318,0.938350469 L5.53810682,0.938350469 Z" id="Path" fill="#FFFFFF" fill-rule="nonzero"></path>
                    <g id="fader-unit" transform="translate(0.000000, 23.000000)" stroke="#FFFFFF" stroke-width="3">
                        <rect id="Rectangle" x="2.25226828" y="2.49133398" width="10.4954634" height="30.017332" rx="5.24773172"></rect>
                        <path d="M1.20211706,17.5 L13.7978829,17.5" id="Line-2-Copy"></path>
                        <path d="M1.20211706,25.5 L13.7978829,25.5" id="Line-2-Copy-2"></path>
                    </g>
                </g>
            </g>
        </g>
    </g>
</svg>