<?xml version="1.0" encoding="utf-8"?>
<!-- Generator: Adobe Illustrator 16.0.0, SVG Export Plug-In . SVG Version: 6.00 Build 0)  -->
<!DOCTYPE svg PUBLIC "-//W3C//DTD SVG 1.1//EN" "http://www.w3.org/Graphics/SVG/1.1/DTD/svg11.dtd">
<svg version="1.1" id="图层_1" xmlns="http://www.w3.org/2000/svg" xmlns:xlink="http://www.w3.org/1999/xlink" x="0px" y="0px"
	 width="144px" height="144px" viewBox="0 0 144 144" enable-background="new 0 0 144 144" xml:space="preserve">
<g>
	<g>
		<circle cx="72" cy="72" r="70.75"/>
	</g>
</g>
<title>icon</title>
<desc>Created with Sketch.</desc>
<g id="Path">
	<g>
		<path fill="#FFFFFF" d="M73.063,117.158c-0.094-7.309-0.094-23.069,0-47.286h-3.191c0.096,24.09,0.096,39.851,0,47.286
			s-0.38,13.664-0.853,18.688h4.896C73.442,130.696,73.158,124.467,73.063,117.158z"/>
	</g>
</g>
<g id="Path_1_">
	<g>
		<path fill="#FFFFFF" d="M69.381,7.036c0.107,0.185,0.188,2.184,0.241,5.998c0.048,3.425,0.12,12.285,0.217,26.578
			c0.012,0.85,0.741,1.54,1.629,1.54c0.888,0,1.617-0.689,1.629-1.54c0.103-14.107,0.178-22.966,0.229-26.578
			c0.051-3.628,0.127-5.627,0.229-5.998H69.381z"/>
	</g>
</g>
<g>
	<g>
		<path fill="#FFFFFF" d="M71.468,31.562c-3.958,0-7.179,3.221-7.179,7.179v20.77c0,3.958,3.221,7.179,7.179,7.179
			c3.959,0,7.18-3.221,7.18-7.179v-20.77C78.647,34.783,75.427,31.562,71.468,31.562z M75.456,59.511
			c0,2.199-1.79,3.987-3.988,3.987s-3.987-1.789-3.987-3.987v-20.77c0-2.199,1.789-3.987,3.987-3.987s3.988,1.789,3.988,3.987
			V59.511z"/>
	</g>
</g>
<rect x="64.768" y="47.53" fill="#FFFFFF" width="13.4" height="3.191"/>
<rect x="64.768" y="56.042" fill="#FFFFFF" width="13.4" height="3.191"/>
</svg>
