<?xml version="1.0" encoding="utf-8"?>
<!-- Generator: Adobe Illustrator 16.0.0, SVG Export Plug-In . SVG Version: 6.00 Build 0)  -->
<!DOCTYPE svg PUBLIC "-//W3C//DTD SVG 1.1//EN" "http://www.w3.org/Graphics/SVG/1.1/DTD/svg11.dtd">
<svg version="1.1" id="图层_1" xmlns="http://www.w3.org/2000/svg" xmlns:xlink="http://www.w3.org/1999/xlink" x="0px" y="0px"
	 width="15px" height="163px" viewBox="0 0 15 163" enable-background="new 0 0 15 163" xml:space="preserve">
<title>logo</title>
<desc>Created with Sketch.</desc>
<path id="Path" d="M6,60c0.09,49.309,0.09,77.457,0,84.445c-0.09,6.989-0.357,12.844-0.801,17.565h4.602
	C9.355,157.17,9.089,151.315,9,144.445C8.911,137.576,8.911,109.428,9,60H6z"/>
<path id="Path_1_" d="M5.538,0.938c0.101,0.173,0.176,2.053,0.227,5.637c0.045,3.22,0.113,11.547,0.204,24.981
	c0.011,0.799,0.697,1.447,1.531,1.447c0.834,0,1.52-0.648,1.531-1.447C9.127,18.297,9.198,9.97,9.246,6.576
	c0.048-3.41,0.12-5.289,0.216-5.637H5.538z"/>
<g id="fader-unit" transform="translate(0.000000, 23.000000)">
	<path d="M7.5,34.009c-3.721,0-6.748-3.027-6.748-6.748V7.739c0-3.721,3.027-6.748,6.748-6.748s6.748,3.027,6.748,6.748v19.521
		C14.248,30.981,11.221,34.009,7.5,34.009z M7.5,3.991c-2.066,0-3.748,1.681-3.748,3.748v19.521c0,2.067,1.681,3.748,3.748,3.748
		s3.748-1.681,3.748-3.748V7.739C11.248,5.672,9.566,3.991,7.5,3.991z"/>
	<rect x="1.202" y="16" width="12.596" height="3"/>
	<rect x="1.202" y="24" width="12.596" height="3"/>
</g>
</svg>
